<?xml version="1.0" standalone="no"?>
<!DOCTYPE svg PUBLIC "-//W3C//DTD SVG 20010904//EN"
 "http://www.w3.org/TR/2001/REC-SVG-20010904/DTD/svg10.dtd">
<svg version="1.0" xmlns="http://www.w3.org/2000/svg"
 width="260.000000pt" height="260.000000pt" viewBox="0 0 260.000000 260.000000"
 preserveAspectRatio="xMidYMid meet">
<metadata>
Created by potrace 1.11, written by Peter Selinger 2001-2013
</metadata>
<g transform="translate(0.000000,260.000000) scale(0.100000,-0.100000)"
fill="#000000" stroke="none">
<path d="M975 2542 c-59 -6 -151 -34 -220 -67 -181 -85 -305 -226 -349 -395
-19 -74 -18 -220 3 -299 l16 -63 249 -104 c136 -57 251 -104 256 -104 11 0
170 434 162 442 -8 8 -387 138 -422 145 -25 4 -27 0 -67 -124 -23 -70 -45
-138 -48 -150 -8 -31 -21 -29 -39 5 -34 67 -19 241 30 339 58 114 183 220 299
252 117 33 276 21 361 -26 148 -82 265 -275 296 -492 l11 -77 -98 -189 c-53
-105 -136 -264 -182 -355 -88 -169 -198 -383 -308 -595 -34 -66 -90 -175 -124
-242 l-62 -123 -174 -132 c-95 -73 -172 -134 -171 -135 1 -2 109 46 240 105
l238 108 213 339 c118 187 242 385 276 440 34 55 134 214 222 354 l160 253 0
82 c-1 154 -23 244 -96 391 -144 292 -392 446 -672 417z"/>
<path d="M2015 2236 c-17 -12 -20 -28 -20 -131 l-1 -117 30 -12 c43 -18 113
-3 148 31 68 65 51 185 -32 228 -37 19 -100 19 -125 1z"/>
<path d="M2015 1564 c-18 -13 -20 -27 -20 -130 0 -131 2 -135 79 -136 115 -2
181 130 114 225 -37 52 -130 74 -173 41z"/>
</g>
</svg>
